<?xml version="1.0" encoding="UTF-8" standalone="no"?>
<svg xmlns:dc="http://purl.org/dc/elements/1.1/" xmlns:cc="http://creativecommons.org/ns#" xmlns:rdf="http://www.w3.org/1999/02/22-rdf-syntax-ns#" xmlns:svg="http://www.w3.org/2000/svg" xmlns="http://www.w3.org/2000/svg" xmlns:sodipodi="http://sodipodi.sourceforge.net/DTD/sodipodi-0.dtd" xmlns:inkscape="http://www.inkscape.org/namespaces/inkscape" version="1.0" width="2028.7008pt" height="830.44391pt" viewBox="0 0 2028.7008 830.44391" preserveAspectRatio="xMidYMid meet" id="svg5493" sodipodi:docname="ukwa-2018-onwhite-close.svg" inkscape:version="0.92.3 (0612fd7ea4, 2018-10-23)">
  <defs id="defs5497"/>
  <sodipodi:namedview pagecolor="#ffffff" bordercolor="#666666" borderopacity="1" objecttolerance="10" gridtolerance="10" guidetolerance="10" inkscape:pageopacity="0" inkscape:pageshadow="2" inkscape:window-width="1389" inkscape:window-height="1004" id="namedview5495" showgrid="false" fit-margin-top="0" fit-margin-left="0" fit-margin-right="0" fit-margin-bottom="0" inkscape:zoom="0.46618506" inkscape:cx="1352.4672" inkscape:cy="553.62927" inkscape:window-x="122" inkscape:window-y="23" inkscape:window-maximized="0" inkscape:current-layer="svg5493"/>
  <metadata id="metadata5457">
Created by potrace 1.15, written by Peter Selinger 2001-2017
<rdf:RDF>
  <cc:Work rdf:about="">
    <dc:format>image/svg+xml</dc:format>
    <dc:type rdf:resource="http://purl.org/dc/dcmitype/StillImage"/>
    <dc:title/>
  </cc:Work>
</rdf:RDF>
</metadata>
  <g transform="matrix(0.1,0,0,-0.1,-786,1724)" id="g5491" style="fill:#2e6ddf;fill-opacity:1;stroke:none">
    <path d="m 7860,15363 c 0,-1968 1,-2012 44,-2258 155,-890 688,-1471 1553,-1695 473,-123 1148,-135 1652,-30 719,150 1236,535 1519,1129 101,212 173,465 219,771 16,106 17,273 20,2038 l 4,1922 h -791 -790 v -1828 c 0,-1552 -2,-1845 -15,-1940 -67,-512 -256,-750 -660,-833 -85,-18 -126,-20 -275,-16 -206,5 -283,21 -430,93 -81,40 -108,60 -185,138 -123,125 -193,263 -240,475 -44,200 -45,251 -45,2129 v 1782 h -790 -790 z" id="path5459" style="fill:#2e6ddf;fill-opacity:1" inkscape:connector-curvature="0"/>
    <path d="m 14845,17188 c -145,-211 -217,-315 -500,-728 -175,-256 -420,-612 -544,-792 -334,-484 -479,-701 -549,-818 l -62,-105 v -687 c 0,-379 2,-688 4,-688 2,0 102,59 221,130 120,72 219,129 220,128 1,-2 44,-84 95,-183 51,-99 123,-238 160,-310 130,-250 681,-1316 790,-1527 l 109,-213 891,-3 891,-2 -12,22 c -11,21 -301,537 -574,1023 -121,215 -599,1065 -865,1540 -89,160 -207,370 -262,467 l -100,177 44,63 c 37,53 407,578 1146,1628 80,113 218,309 307,435 89,127 200,284 246,350 47,66 88,126 93,133 6,9 -167,12 -853,12 h -860 z" id="path5461" style="fill:#2e6ddf;fill-opacity:1" inkscape:connector-curvature="0"/>
    <path d="m 16940,16933 c 43,-170 150,-600 238,-958 89,-357 247,-996 352,-1420 105,-423 229,-923 275,-1110 46,-187 163,-659 260,-1050 97,-390 192,-779 213,-862 l 37,-153 h 935 935 l 303,1368 c 166,752 316,1432 332,1512 77,381 150,792 180,1008 7,50 16,92 19,92 4,0 15,-60 25,-132 53,-394 155,-948 275,-1488 33,-151 70,-315 81,-365 11,-49 91,-416 179,-815 88,-399 182,-826 208,-950 l 49,-225 935,-3 935,-2 58,237 c 57,235 219,891 546,2218 92,374 243,986 335,1360 311,1264 496,2010 501,2028 5,16 -35,17 -755,17 -715,0 -760,-1 -765,-17 -2,-10 -43,-193 -90,-408 -47,-214 -190,-860 -317,-1435 -341,-1545 -446,-2065 -505,-2492 -9,-71 -20,-128 -24,-128 -4,0 -12,39 -19,88 -7,48 -26,165 -42,261 -95,561 -208,1144 -314,1611 -31,135 -90,396 -131,580 -42,184 -102,450 -134,590 -32,140 -106,469 -165,730 -59,261 -115,508 -123,548 l -16,72 h -732 -732 l -5,-27 c -2,-16 -14,-68 -26,-118 -37,-159 -58,-247 -95,-410 -33,-140 -183,-787 -236,-1010 -10,-44 -30,-129 -45,-190 -14,-60 -35,-148 -45,-195 -11,-47 -54,-227 -94,-400 -78,-332 -99,-429 -171,-785 -83,-418 -143,-750 -189,-1050 -46,-294 -48,-306 -52,-302 -3,3 -18,87 -35,188 -45,280 -130,727 -189,999 -16,74 -61,279 -99,455 -38,176 -91,417 -116,535 -49,227 -133,615 -215,990 -27,124 -79,362 -115,530 -36,168 -83,386 -105,485 -22,99 -45,208 -52,243 l -12,62 h -761 -762 z" id="path5463" style="fill:#2e6ddf;fill-opacity:1" inkscape:connector-curvature="0"/>
    <path d="m 25411,17183 c -6,-21 -40,-164 -76,-318 -88,-372 -122,-518 -139,-587 -16,-63 -13,-81 54,-369 33,-140 226,-913 259,-1034 48,-178 93,-346 140,-525 28,-107 76,-289 106,-404 30,-114 55,-210 55,-212 0,-2 -274,-4 -608,-4 h -608 l -23,-97 c -38,-163 -270,-1146 -276,-1170 l -5,-23 h 924 923 l 13,-47 c 7,-27 20,-77 30,-113 10,-36 32,-119 49,-185 17,-66 67,-257 111,-425 44,-168 80,-311 80,-317 0,-10 180,-13 866,-13 476,0 863,3 861,8 -2,4 -14,39 -26,77 -12,39 -75,232 -141,430 -340,1033 -446,1354 -640,1945 -256,781 -431,1311 -595,1810 -178,537 -341,1034 -442,1343 l -87,267 h -398 -397 z" id="path5465" style="fill:#2e6ddf;fill-opacity:1" inkscape:connector-curvature="0"/>
    <path d="m 21963,10510 c -157,-22 -326,-109 -423,-218 -61,-68 -133,-208 -161,-312 -26,-101 -36,-293 -19,-412 45,-331 212,-537 500,-615 120,-32 429,-18 543,26 23,9 27,16 27,51 0,46 0,46 -85,24 -93,-23 -344,-29 -433,-10 -214,45 -360,194 -423,431 -32,116 -32,375 -1,488 35,128 77,203 162,288 129,130 256,175 475,166 114,-4 204,-25 306,-71 13,-5 20,2 33,34 9,22 16,44 16,49 0,11 -97,47 -180,66 -82,19 -256,27 -337,15 z" id="path5467" style="fill:#2e6ddf;fill-opacity:1" inkscape:connector-curvature="0"/>
    <path d="m 18420,9744 c -168,-422 -306,-773 -308,-780 -3,-11 10,-14 51,-14 h 54 l 32,83 c 18,45 66,169 108,275 l 75,192 h 318 318 l 72,-182 c 39,-101 88,-225 107,-275 l 36,-93 h 58 59 l -21,53 c -12,28 -147,374 -301,767 -154,393 -282,721 -285,728 -3,6 -19,12 -37,12 h -31 z m 360,531 c 7,-22 66,-181 131,-354 66,-173 118,-316 116,-318 -2,-2 -128,-2 -279,-1 l -275,3 89,225 c 82,209 175,456 185,489 5,20 18,3 33,-44 z" id="path5469" style="fill:#2e6ddf;fill-opacity:1" inkscape:connector-curvature="0"/>
    <path d="m 8053,9943 c 3,-484 6,-567 21,-622 49,-186 181,-318 367,-368 87,-23 281,-23 367,0 105,28 172,66 243,136 69,70 107,135 136,236 15,53 17,128 21,618 l 3,557 h -55 -55 l -3,-572 c -3,-561 -3,-574 -25,-631 -44,-115 -131,-201 -248,-242 -116,-41 -341,-28 -447,26 -58,29 -130,100 -161,157 -54,100 -57,129 -57,720 v 542 h -56 -55 z" id="path5471" style="fill:#2e6ddf;fill-opacity:1" inkscape:connector-curvature="0"/>
    <path d="m 9890,9725 v -775 h 50 50 v 318 317 l 105,93 c 57,50 106,92 109,92 2,0 137,-184 301,-410 l 297,-410 h 59 c 33,0 59,2 59,5 0,2 -139,195 -309,429 -170,233 -315,433 -322,444 -12,19 13,46 302,344 l 314,323 -60,3 -60,3 -215,-223 c -118,-123 -296,-306 -397,-408 l -183,-185 v 408 407 h -50 -50 z" id="path5473" style="fill:#2e6ddf;fill-opacity:1" inkscape:connector-curvature="0"/>
    <path d="m 12070,10495 c 0,-3 95,-349 210,-770 116,-420 210,-766 210,-769 0,-4 20,-6 45,-6 25,0 45,2 45,4 0,3 68,247 151,543 83,296 170,614 194,706 23,92 45,170 47,173 3,2 10,-20 17,-48 6,-29 96,-350 200,-713 l 188,-660 40,-3 c 39,-3 42,-1 52,30 5,18 101,362 211,763 110,402 203,736 205,743 3,8 -10,12 -48,12 h -52 l -168,-628 c -92,-345 -173,-653 -179,-684 -7,-32 -15,-58 -19,-58 -3,0 -9,18 -13,40 -5,33 -288,1032 -358,1263 l -20,67 h -56 -57 l -157,-563 c -154,-547 -208,-754 -208,-789 0,-10 -3,-18 -7,-18 -5,0 -18,44 -29,98 -12,54 -93,363 -180,685 l -159,587 h -52 c -29,0 -53,-2 -53,-5 z" id="path5475" style="fill:#2e6ddf;fill-opacity:1" inkscape:connector-curvature="0"/>
    <path d="m 14420,9725 v -775 h 420 420 v 50 50 h -370 -370 v 330 330 h 350 350 v 50 50 h -350 -350 v 295 295 h 370 370 v 50 50 h -420 -420 z" id="path5477" style="fill:#2e6ddf;fill-opacity:1" inkscape:connector-curvature="0"/>
    <path d="m 15880,9725 v -777 l 308,5 c 328,4 363,9 480,62 75,34 154,113 187,186 52,116 54,264 5,365 -42,87 -155,162 -270,180 -57,9 -57,20 -2,34 65,16 158,67 189,104 14,17 38,56 52,86 21,46 26,69 25,140 0,110 -22,174 -81,240 -53,59 -115,93 -221,122 -67,18 -115,21 -374,25 l -298,5 z m 611,661 c 125,-27 211,-88 240,-173 23,-65 17,-179 -13,-244 -30,-65 -71,-101 -154,-131 -54,-20 -82,-23 -321,-26 l -263,-4 v 296 296 h 223 c 152,0 243,-5 288,-14 z m 20,-690 c 136,-29 223,-94 255,-188 12,-37 15,-73 12,-142 -7,-142 -54,-218 -169,-270 -85,-39 -142,-46 -395,-46 h -234 v 330 330 h 233 c 159,0 252,-5 298,-14 z" id="path5479" style="fill:#2e6ddf;fill-opacity:1" inkscape:connector-curvature="0"/>
    <path d="m 19880,9726 v -776 h 50 50 v 335 335 h 198 198 l 199,-335 200,-335 h 58 c 31,0 57,3 57,6 0,3 -90,156 -200,339 -110,183 -202,339 -205,347 -4,9 9,18 40,27 66,19 157,82 198,136 125,163 110,437 -31,566 -24,23 -69,52 -100,66 -104,46 -169,55 -449,60 l -263,5 z m 611,646 c 84,-28 148,-83 180,-154 19,-44 23,-70 23,-153 0,-121 -23,-183 -90,-245 -89,-82 -168,-100 -429,-100 h -195 v 341 341 l 223,-4 c 193,-4 231,-7 288,-26 z" id="path5481" style="fill:#2e6ddf;fill-opacity:1" inkscape:connector-curvature="0"/>
    <path d="m 23030,9725 v -775 h 50 50 v 380 380 h 455 455 v -380 -380 h 55 55 v 775 775 h -55 -55 v -345 -345 h -455 -455 v 345 345 h -50 -50 z" id="path5483" style="fill:#2e6ddf;fill-opacity:1" inkscape:connector-curvature="0"/>
    <path d="m 24850,9725 v -775 h 50 50 v 775 775 h -50 -50 z" id="path5485" style="fill:#2e6ddf;fill-opacity:1" inkscape:connector-curvature="0"/>
    <path d="m 25450,10492 c 0,-7 525,-1424 565,-1524 5,-13 19,-18 50,-18 h 44 l 21,58 c 12,31 138,368 280,747 142,380 263,703 269,718 l 11,28 -57,-3 -56,-3 -204,-555 c -111,-305 -226,-621 -254,-703 -29,-81 -53,-146 -54,-145 -1,2 -28,77 -59,168 -31,91 -145,406 -254,700 l -198,535 -52,3 c -29,2 -52,-1 -52,-6 z" id="path5487" style="fill:#2e6ddf;fill-opacity:1" inkscape:connector-curvature="0"/>
    <path d="m 27170,9725 v -775 h 420 420 v 50 50 h -370 -370 v 330 330 h 350 350 v 50 50 h -350 -350 v 295 295 h 370 370 v 50 50 h -420 -420 z" id="path5489" style="fill:#2e6ddf;fill-opacity:1" inkscape:connector-curvature="0"/>
  </g>
</svg>